<svg width="60" height="60" viewBox="0 0 60 60" fill="none" xmlns="http://www.w3.org/2000/svg">
<circle cx="30" cy="30" r="30" fill="#2EBBE1"/>
<path d="M29.8372 18.2827L29.7597 18.467C29.684 18.4352 29.6154 18.3886 29.5579 18.33C29.5004 18.2714 29.4551 18.2019 29.4246 18.1257C29.3943 18.05 29.3792 17.969 29.3802 17.8875M29.8372 18.2827L29.5802 17.8886M29.8372 18.2827C29.8884 18.3042 29.9433 18.3153 29.9988 18.3153C30.0542 18.3153 30.1091 18.3042 30.1603 18.2827C30.2115 18.2611 30.2579 18.2296 30.2968 18.1899C30.3358 18.1502 30.3665 18.1032 30.3872 18.0514C30.4079 17.9997 30.4181 17.9444 30.4173 17.8886H30.6173V17.8875V15.789C30.6202 15.7006 30.6041 15.6125 30.5702 15.5307C30.5357 15.4476 30.4836 15.3729 30.4174 15.3119C30.3512 15.251 30.2725 15.2052 30.1868 15.1778C30.1011 15.1504 30.0105 15.142 29.9212 15.1534L29.9464 15.3518M29.8372 18.2827L29.9464 15.3518M29.3802 17.8875C29.3802 17.8869 29.3802 17.8864 29.3802 17.8858L29.5802 17.8886M29.3802 17.8875V17.8886H29.5802M29.3802 17.8875V15.789M29.5802 17.8886V15.7856M29.3802 15.789C29.3802 15.7905 29.3803 15.7919 29.3803 15.7933L29.5802 15.7856M29.3802 15.789C29.3753 15.6355 29.4273 15.4854 29.5265 15.368C29.6266 15.2495 29.7675 15.1727 29.9214 15.1534L29.9464 15.3518M29.3802 15.789V15.7856H29.5802M29.5802 15.7856L29.9464 15.3518M15.2499 29.6898C15.3547 29.5626 15.5058 29.4823 15.6699 29.4668C15.705 29.4635 15.7405 29.4632 15.7757 29.4659H17.8589H17.8601V29.6659L15.2499 29.6898ZM15.2499 29.6898C15.1451 29.8169 15.0949 29.9805 15.1102 30.1446C15.1255 30.3086 15.2051 30.4601 15.3317 30.5656C15.4558 30.6688 15.615 30.7196 15.7756 30.7072M15.2499 29.6898L15.7756 30.7072M15.7756 30.7072H17.8589H17.8601V30.5072C17.9155 30.508 17.9706 30.4977 18.0221 30.4769C18.0735 30.4561 18.1204 30.4252 18.1599 30.3861C18.1994 30.347 18.2308 30.3003 18.2522 30.2489C18.2736 30.1975 18.2846 30.1423 18.2846 30.0866C18.2846 30.0308 18.2736 29.9756 18.2522 29.9242C18.2308 29.8728 18.1994 29.8261 18.1599 29.787L15.7756 30.7072ZM41.6202 29.6898C41.725 29.5626 41.876 29.4823 42.0401 29.4668C42.0753 29.4635 42.1107 29.4632 42.146 29.4659H44.2291H44.2303V29.6659L41.6202 29.6898ZM41.6202 29.6898C41.5153 29.8169 41.4652 29.9805 41.4805 30.1446C41.4958 30.3086 41.5754 30.4601 41.702 30.5656C41.826 30.6688 41.9853 30.7196 42.1459 30.7072M41.6202 29.6898L42.1459 30.7072M42.1459 30.7072H44.2291H44.2303V30.5072C44.2858 30.508 44.3409 30.4977 44.3923 30.4769C44.4438 30.4561 44.4907 30.4252 44.5302 30.3861C44.5697 30.347 44.601 30.3003 44.6224 30.2489C44.6438 30.1975 44.6549 30.1423 44.6549 30.0866C44.6549 30.0308 44.6438 29.9756 44.6224 29.9242C44.601 29.8728 44.5697 29.8261 44.5302 29.787L42.1459 30.7072ZM29.9214 41.6523C29.7675 41.6717 29.6266 41.7484 29.5265 41.8669M29.9214 41.6523L29.9464 41.8507L29.9212 41.6523C29.9213 41.6523 29.9214 41.6523 29.9214 41.6523ZM29.9214 41.6523C30.0106 41.641 30.1012 41.6493 30.1868 41.6767C30.2725 41.7041 30.3512 41.7499 30.4174 41.8108C30.4836 41.8718 30.5357 41.9465 30.5702 42.0296C30.6041 42.1114 30.6202 42.1995 30.6173 42.2879V44.3864V44.3876H30.4173L29.5265 41.8669M29.5265 41.8669C29.4273 41.9843 29.3753 42.1344 29.3802 42.2879M29.5265 41.8669L29.3802 42.2879M29.3802 42.2879V44.3864V44.3876H29.5802C29.5794 44.4433 29.5896 44.4986 29.6103 44.5503C29.631 44.6021 29.6617 44.6491 29.7007 44.6888L29.3802 42.2879ZM48.1975 30.1448C48.1972 30.1417 48.1968 30.1381 48.1963 30.1342L48.1975 30.0866C48.1975 30.0861 48.1975 30.0857 48.1975 30.0852C48.1968 19.9923 40.0451 11.8 29.9988 11.8C19.9519 11.8 11.8 19.9931 11.8 30.0866C11.8 40.18 19.9519 48.3731 29.9988 48.3731C38.7019 48.3731 45.9675 42.2078 47.7596 34.0012C47.7671 33.9747 47.7728 33.9432 47.7768 33.9207C47.7832 33.8842 47.7908 33.8366 47.7993 33.7801C47.8163 33.667 47.8376 33.5141 47.8613 33.3353C47.9088 32.9777 47.9665 32.5138 48.0207 32.0518C48.0749 31.59 48.1257 31.1288 48.1592 30.7771C48.1759 30.6015 48.1885 30.4513 48.195 30.3413C48.1982 30.2867 48.2001 30.2389 48.2 30.2016C48.1999 30.1835 48.1994 30.1635 48.1975 30.1448ZM29.9988 13.0412C39.1964 13.0412 46.6778 20.3861 46.9525 29.5636C46.9521 29.5671 46.9517 29.5706 46.9513 29.5741C46.9078 29.9339 46.85 30.5091 46.7922 31.1179C46.6817 32.2811 46.5698 33.5797 46.5565 33.7512C44.8835 41.3979 38.1129 47.1319 29.9988 47.1319C20.6271 47.1319 13.0372 39.5063 13.0372 30.0866C13.0372 20.6668 20.6271 13.0412 29.9988 13.0412ZM47.06 30.4314C46.9271 31.7546 46.7597 33.7029 46.7549 33.7801L47.06 30.4314ZM22.3333 21.8988L22.3333 21.8988L22.3303 21.8994C22.2425 21.9185 22.16 21.9566 22.0885 22.0108C22.0169 22.0651 21.958 22.1343 21.9158 22.2136C21.8736 22.2928 21.8491 22.3803 21.8439 22.47C21.8388 22.5594 21.8529 22.6488 21.8855 22.7322C21.8856 22.7325 21.8857 22.7327 21.8858 22.733L26.0841 33.6678L26.0847 33.6693C26.1157 33.7482 26.1626 33.8199 26.2224 33.88L26.3641 33.7389L26.2224 33.88C26.2822 33.9401 26.3537 33.9873 26.4324 34.0186L26.4341 34.0192L37.3022 38.2247C37.4134 38.2698 37.5353 38.2816 37.6531 38.2584C37.7715 38.2351 37.8805 38.1776 37.9667 38.0931C38.0528 38.0086 38.1124 37.9008 38.1383 37.7829C38.1642 37.665 38.1553 37.5421 38.1126 37.4292L38.1122 37.4282L33.9134 26.4922L33.9128 26.4907C33.8818 26.4118 33.8349 26.3401 33.7752 26.28C33.7154 26.2199 33.6439 26.1727 33.5651 26.1414L33.5634 26.1408L22.6969 21.9359C22.5823 21.8871 22.4555 21.8741 22.3333 21.8988ZM32.8653 27.2046L36.4526 36.572L27.1322 32.9554L23.5449 23.588L32.8653 27.2046ZM29.9988 28.6247C29.1939 28.6247 28.543 29.2801 28.543 30.0866C28.543 30.893 29.1939 31.5484 29.9988 31.5484C30.8037 31.5484 31.4545 30.893 31.4545 30.0866C31.4545 29.2801 30.8037 28.6247 29.9988 28.6247Z" fill="white" stroke="white" stroke-width="0.4"/>
</svg>
