<svg width="60" height="60" viewBox="0 0 60 60" fill="none" xmlns="http://www.w3.org/2000/svg">
<circle cx="30" cy="30" r="30" fill="#2EBBE1"/>
<path d="M42.8571 18.7571H17.8426C17.062 18.7571 16.3135 19.0688 15.7617 19.6234C15.2099 20.178 14.9 20.9301 14.9 21.7143V41.1428C14.9 41.927 15.2099 42.6791 15.7617 43.2337C16.3135 43.7883 17.062 44.1 17.8426 44.1H42.8571C43.6377 44.1 44.3862 43.7883 44.938 43.2337C45.4898 42.6791 45.7997 41.927 45.7997 41.1428V21.7143C45.7997 20.9301 45.4898 20.178 44.938 19.6234C44.3862 19.0688 43.6377 18.7571 42.8571 18.7571ZM42.8571 42.7571H17.8426C17.4169 42.7571 17.0086 42.5872 16.7075 42.2845C16.4063 41.9818 16.237 41.5711 16.237 41.1428V21.7143C16.237 21.286 16.4063 20.8753 16.7075 20.5726C17.0086 20.2699 17.4169 20.1 17.8426 20.1H42.8571C43.2828 20.1 43.6911 20.2699 43.9923 20.5726C44.2934 20.8753 44.4627 21.286 44.4627 21.7143V26.7571H33.1924C31.9595 26.7571 30.7772 27.2494 29.9055 28.1255C29.0339 29.0016 28.5443 30.1898 28.5443 31.4285C28.5443 32.6673 29.0339 33.8555 29.9055 34.7316C30.7772 35.6077 31.9595 36.1 33.1924 36.1H44.4627V41.1428C44.4627 41.5711 44.2934 41.9818 43.9923 42.2845C43.6911 42.5872 43.2828 42.7571 42.8571 42.7571ZM44.4627 34.7571H33.1924C32.3144 34.7571 31.4723 34.4066 30.8513 33.7824C30.2303 33.1582 29.8813 32.3115 29.8813 31.4285C29.8813 30.5456 30.2303 29.6989 30.8513 29.0747C31.4723 28.4505 32.3144 28.1 33.1924 28.1H44.4627V34.7571Z" fill="white" stroke="white" stroke-width="0.2"/>
<path d="M18.411 17.2429H42.2886C42.4661 17.2429 42.6362 17.172 42.7615 17.046C42.8868 16.9201 42.9571 16.7493 42.9571 16.5714C42.9571 16.3935 42.8868 16.2228 42.7615 16.0968C42.6362 15.9709 42.4661 15.9 42.2886 15.9H18.411C18.2336 15.9 18.0635 15.9709 17.9382 16.0968C17.8128 16.2228 17.7425 16.3935 17.7425 16.5714C17.7425 16.7493 17.8128 16.9201 17.9382 17.046C18.0635 17.172 18.2336 17.2429 18.411 17.2429Z" fill="white" stroke="white" stroke-width="0.2"/>
<circle cx="33.3645" cy="31.1864" r="1.02038" fill="white" stroke="white" stroke-width="0.2"/>
</svg>
