<svg width="60" height="60" viewBox="0 0 60 60" fill="none" xmlns="http://www.w3.org/2000/svg">
<circle cx="30" cy="30" r="30" fill="#2EBBE1"/>
<path d="M30.0002 11.85C19.9918 11.85 11.85 19.9922 11.85 30C11.85 40.0078 19.9918 48.15 30.0002 48.15C40.0082 48.15 48.15 40.0078 48.15 30C48.15 19.9922 40.0082 11.85 30.0002 11.85ZM14.3688 36.7415C13.5439 34.8354 13.059 32.7506 12.9877 30.5616H19.2095C19.249 32.739 19.5174 34.8205 19.9749 36.7415H14.3688ZM30.5614 21.6216V13.0047C32.2221 13.1738 33.7815 14.0881 35.1289 15.5794C36.4842 17.0796 37.6184 19.1573 38.4148 21.6216H30.5614ZM30.5614 22.7445H38.747C39.297 24.7864 39.6206 27.0512 39.6642 29.4384H30.5614V22.7445ZM29.4386 21.6216H21.5853C22.3818 19.1573 23.5161 17.0796 24.8715 15.5794C26.2188 14.0881 27.7781 13.1738 29.4386 13.0047V21.6216ZM29.4386 22.7445V29.4384H20.3358C20.3798 27.0512 20.7034 24.7864 21.2535 22.7445H29.4386ZM20.1029 22.7445C19.567 24.8058 19.2529 27.066 19.2095 29.4384H12.9877C13.0653 27.0514 13.6324 24.7864 14.5985 22.7445H20.1029ZM21.1222 36.7415C20.6525 34.8355 20.3759 32.7507 20.3358 30.5616H29.439V36.7415H21.1222ZM29.4386 37.8643V46.9949C27.7216 46.8202 26.113 45.8481 24.7353 44.2653C23.3486 42.6721 22.203 40.4675 21.4275 37.8643H29.4386ZM30.5614 37.8643H38.5721C37.7968 40.4677 36.6513 42.6724 35.2646 44.2657C33.887 45.8485 32.2784 46.8206 30.5614 46.9953V37.8643ZM30.5614 36.7415V30.5616H39.6646C39.6245 32.7507 39.3475 34.8354 38.8778 36.7415H30.5614ZM40.0247 36.7415C40.4826 34.8205 40.751 32.7386 40.7905 30.5616H47.0127C46.9411 32.7507 46.4565 34.8354 45.6312 36.7415H40.0247ZM40.7905 29.4384C40.7479 27.066 40.4334 24.8057 39.8975 22.7445H45.4024C46.3681 24.7864 46.9347 27.0513 47.0131 29.4384H40.7905ZM34.6624 13.6271C38.9989 14.8631 42.6355 17.7765 44.8181 21.6216H39.5773C38.5019 18.1557 36.7766 15.3326 34.6624 13.6271ZM20.4227 21.6216H15.1815C17.3649 17.7766 21.0014 14.8632 25.3379 13.6271C23.2233 15.3326 21.4981 18.1554 20.4227 21.6216ZM20.2693 37.8643C21.3305 41.566 23.1202 44.5842 25.3378 46.3731C20.8109 45.0819 17.0492 41.9621 14.9055 37.8643H20.2693ZM39.7307 37.8643H45.0941C42.9508 41.962 39.1891 45.0819 34.6627 46.3731C36.8802 44.5842 38.6699 41.566 39.7307 37.8643Z" fill="white" stroke="white" stroke-width="0.3"/>
</svg>
