<svg width="58" height="58" viewBox="0 0 58 58" fill="none" xmlns="http://www.w3.org/2000/svg">
<path d="M29 0C23.2644 0 17.6575 1.70082 12.8885 4.88738C8.11945 8.07394 4.40245 12.6031 2.20751 17.9022C0.0125653 23.2012 -0.561732 29.0322 0.55724 34.6576C1.67621 40.2831 4.43819 45.4504 8.49392 49.5061C12.5496 53.5618 17.7169 56.3238 23.3424 57.4428C28.9678 58.5617 34.7988 57.9874 40.0978 55.7925C45.3969 53.5976 49.9261 49.8806 53.1126 45.1115C56.2992 40.3425 58 34.7357 58 29C57.992 21.3112 54.9341 13.9396 49.4973 8.50273C44.0605 3.06591 36.6888 0.0079967 29 0V0ZM29 56.1875C23.6228 56.1875 18.3664 54.593 13.8954 51.6056C9.42449 48.6182 5.9398 44.3721 3.88204 39.4042C1.82428 34.4363 1.28588 28.9698 2.33491 23.696C3.38395 18.4221 5.97331 13.5778 9.77555 9.77553C13.5778 5.97329 18.4221 3.38394 23.696 2.3349C28.9699 1.28586 34.4364 1.82427 39.4042 3.88202C44.3721 5.93978 48.6182 9.42447 51.6056 13.8954C54.593 18.3664 56.1875 23.6228 56.1875 29C56.1795 36.2081 53.3126 43.1187 48.2157 48.2156C43.1187 53.3125 36.2081 56.1795 29 56.1875Z" fill="#2EBBE1"/>
<path d="M41.8685 19.2608L24.3175 36.8179L16.131 28.6254C15.9592 28.4653 15.732 28.3782 15.4972 28.3823C15.2624 28.3864 15.0384 28.4816 14.8724 28.6476C14.7063 28.8136 14.6112 29.0376 14.6071 29.2724C14.6029 29.5072 14.6901 29.7344 14.8502 29.9062L23.677 38.7391C23.847 38.9088 24.0773 39.0042 24.3175 39.0042C24.5576 39.0042 24.7879 38.9088 24.9579 38.7391L43.1493 20.5416C43.3094 20.3698 43.3966 20.1426 43.3924 19.9078C43.3883 19.6731 43.2932 19.4491 43.1271 19.283C42.9611 19.117 42.7371 19.0219 42.5023 19.0177C42.2675 19.0136 42.0403 19.1007 41.8685 19.2608Z" fill="#2EBBE1"/>
</svg>
