<svg width="60" height="60" viewBox="0 0 60 60" fill="none" xmlns="http://www.w3.org/2000/svg">
<circle cx="30" cy="30" r="30" fill="#2EBBE1"/>
<path d="M31.8128 30.0168C33.2594 30.0178 34.6738 29.5896 35.877 28.7865C37.0802 27.9835 38.0182 26.8415 38.5722 25.5052C39.1263 24.1689 39.2715 22.6983 38.9895 21.2794C38.7075 19.8606 38.011 18.5573 36.9881 17.5344C35.9652 16.5115 34.6619 15.815 33.243 15.533C31.8242 15.251 30.3535 15.3962 29.0172 15.9502C27.6809 16.5043 26.539 17.4422 25.7359 18.6454C24.9328 19.8486 24.5047 21.263 24.5056 22.7096C24.5082 24.6468 25.2789 26.504 26.6487 27.8738C28.0185 29.2436 29.8756 30.0143 31.8128 30.0168ZM31.8128 16.3654C33.0678 16.3644 34.2949 16.7357 35.3388 17.4322C36.3828 18.1288 37.1967 19.1193 37.6776 20.2784C38.1585 21.4376 38.2848 22.7134 38.0406 23.9443C37.7963 25.1753 37.1925 26.3062 36.3054 27.1939C35.4184 28.0817 34.288 28.6864 33.0572 28.9316C31.8264 29.1768 30.5505 29.0514 29.391 28.5714C28.2314 28.0913 27.2403 27.2782 26.543 26.2348C25.8457 25.1914 25.4735 23.9646 25.4735 22.7096C25.4722 21.8761 25.6352 21.0504 25.9531 20.2799C26.2711 19.5094 26.7378 18.8091 27.3265 18.219C27.9152 17.6289 28.6145 17.1607 29.3843 16.8409C30.1541 16.5212 30.9793 16.3563 31.8128 16.3557V16.3654Z" fill="white" stroke="white" stroke-width="0.4"/>
<path d="M45.0482 34.5658C44.9052 34.5654 44.7624 34.58 44.6224 34.6093C44.6047 34.6115 44.5868 34.6115 44.5692 34.6093C44.4747 34.6319 44.3824 34.6627 44.2933 34.7013L36.9522 37.1209C36.9752 37.0012 36.9881 36.8798 36.9909 36.7579C36.9897 36.224 36.7773 35.7122 36.4002 35.3341C36.0231 34.9561 35.5118 34.7425 34.9778 34.74H30.0466C29.9547 34.5851 29.8531 34.4351 29.7515 34.2948C29.3007 33.6938 28.7162 33.206 28.0442 32.87C27.3723 32.534 26.6313 32.3591 25.8801 32.3591H19.4584V30.8734C19.4584 30.7451 19.4074 30.622 19.3167 30.5313C19.2259 30.4405 19.1029 30.3895 18.9745 30.3895H12.5625C12.4342 30.3895 12.3111 30.4405 12.2204 30.5313C12.1296 30.622 12.0786 30.7451 12.0786 30.8734V42.2892C12.0786 42.4175 12.1296 42.5406 12.2204 42.6314C12.3111 42.7221 12.4342 42.7731 12.5625 42.7731H18.9745C19.1029 42.7731 19.2259 42.7221 19.3167 42.6314C19.4074 42.5406 19.4584 42.4175 19.4584 42.2892V41.3213L29.345 44.2926C30.1153 44.5675 30.9379 44.6641 31.7509 44.5753C32.5639 44.4864 33.3462 44.2144 34.039 43.7797L45.779 38.4517C46.2024 38.2696 46.5508 37.9481 46.7661 37.5405C46.9814 37.133 47.0508 36.664 46.9625 36.2116C46.8743 35.7592 46.6339 35.3506 46.2812 35.0538C45.9285 34.757 45.4849 34.5899 45.024 34.5803L45.0482 34.5658ZM18.5099 41.8246H13.0465V31.3574H18.4906L18.5099 41.8246ZM45.3531 37.6096L33.6954 42.9328H33.6519C33.0777 43.3016 32.4263 43.5331 31.7482 43.6095C31.0701 43.6859 30.3836 43.605 29.7418 43.3732L19.4584 40.3341V33.3366H25.8801C26.4808 33.3343 27.0737 33.4733 27.6108 33.7423C28.1479 34.0113 28.6143 34.4028 28.9723 34.8852C29.0963 35.0526 29.2079 35.2289 29.3062 35.4126C29.3426 35.501 29.4042 35.5767 29.4834 35.6301C29.5627 35.6834 29.6559 35.7122 29.7515 35.7127H34.9488C35.2264 35.714 35.4923 35.8252 35.6882 36.0219C35.8841 36.2187 35.9941 36.4851 35.9941 36.7628C35.9952 36.9084 35.9656 37.0526 35.9073 37.186C35.8489 37.3195 35.763 37.4391 35.6553 37.5371C35.4635 37.715 35.2104 37.812 34.9488 37.8081H26.0736C25.9453 37.8081 25.8222 37.859 25.7315 37.9498C25.6407 38.0405 25.5897 38.1636 25.5897 38.292C25.5897 38.4203 25.6407 38.5434 25.7315 38.6342C25.8222 38.7249 25.9453 38.7759 26.0736 38.7759H34.9585C35.3622 38.7752 35.7559 38.6502 36.086 38.4178L44.7966 35.5578C44.8787 35.5368 44.9636 35.5287 45.0482 35.5336C45.3259 35.5336 45.5923 35.6436 45.7891 35.8395C45.9859 36.0354 46.0971 36.3012 46.0984 36.5789C46.0954 36.807 46.0196 37.0282 45.8821 37.2101C45.7445 37.3921 45.5524 37.5253 45.3338 37.5903L45.3531 37.6096Z" fill="white" stroke="white" stroke-width="0.4"/>
<path d="M34.75 24.2029C34.9321 24.3606 34.9521 24.6352 34.795 24.8173C34.1902 25.5176 33.3801 25.9035 32.5149 25.9035C31.1845 25.9035 29.9441 24.9656 29.4955 23.4355H28.4499C28.2092 23.4355 28.0144 23.2407 28.0144 23C28.0144 22.7593 28.2092 22.5644 28.4499 22.5644H29.3384C29.3251 22.371 29.3251 22.1771 29.3384 21.9837H28.4499C28.2092 21.9837 28.0144 21.7889 28.0144 21.5482C28.0144 21.3075 28.2092 21.1127 28.4499 21.1127H29.4955C29.9447 19.5802 31.1871 18.6447 32.5149 18.6447C33.3801 18.6447 34.1902 19.0305 34.7953 19.7309C34.9524 19.9129 34.9324 20.1879 34.7503 20.3453C34.5686 20.5023 34.2933 20.4823 34.1359 20.3002C33.6987 19.7945 33.1235 19.5157 32.5149 19.5157C31.5506 19.5157 30.7693 20.2009 30.4095 21.1127H31.9342C32.1749 21.1127 32.3697 21.3075 32.3697 21.5482C32.3697 21.7889 32.1749 21.9837 31.9342 21.9837H30.2028C30.1854 22.1768 30.1854 22.3713 30.2028 22.5644H31.9342C32.1749 22.5644 32.3697 22.7593 32.3697 23C32.3697 23.2407 32.1749 23.4355 31.9342 23.4355H30.4095C30.7704 24.3501 31.5535 25.0324 32.5149 25.0324C33.1235 25.0324 33.6987 24.7537 34.1356 24.2479C34.293 24.0658 34.5677 24.0464 34.75 24.2029Z" fill="white" stroke="white" stroke-width="0.4"/>
</svg>
